<?xml version="1.0" standalone="no"?><!DOCTYPE svg PUBLIC "-//W3C//DTD SVG 1.1//EN" "http://www.w3.org/Graphics/SVG/1.1/DTD/svg11.dtd"><svg t="1597305138452" class="icon" viewBox="0 0 1024 1024" version="1.1" xmlns="http://www.w3.org/2000/svg" p-id="4845" xmlns:xlink="http://www.w3.org/1999/xlink" width="32" height="32"><defs><style type="text/css"></style></defs><path d="M842.666667 405.333333v341.333334c0 77.333333-54.890667 138.666667-120.704 138.666666H302.037333C236.224 885.333333 181.333333 824 181.333333 746.666667V405.333333h-64v341.333334c0 111.189333 81.856 202.666667 184.704 202.666666h419.925334c102.848 0 184.704-91.477333 184.704-202.666666V405.333333h-64z" fill="#dc5d48" p-id="4846"></path><path d="M426.666667 842.666667h170.666666a32 32 0 0 0 0-64h-170.666666a32 32 0 0 0 0 64zM512 341.333333a170.666667 170.666667 0 1 1 0 341.333334 170.666667 170.666667 0 0 1 0-341.333334z m0 64a106.666667 106.666667 0 1 0 0 213.333334 106.666667 106.666667 0 0 0 0-213.333334z" fill="#dc5d48" p-id="4847"></path><path d="M84.821333 493.632L449.514667 181.034667a96 96 0 0 1 124.970666 0l364.693334 312.597333a32 32 0 0 0 41.642666-48.597333L616.128 132.437333a160 160 0 0 0-208.256 0L43.178667 445.034667a32 32 0 0 0 41.642666 48.597333z" fill="#dc5d48" p-id="4848"></path></svg>