<?xml version="1.0" standalone="no"?><!DOCTYPE svg PUBLIC "-//W3C//DTD SVG 1.1//EN" "http://www.w3.org/Graphics/SVG/1.1/DTD/svg11.dtd"><svg t="1597303753511" class="icon" viewBox="0 0 1024 1024" version="1.1" xmlns="http://www.w3.org/2000/svg" p-id="2245" xmlns:xlink="http://www.w3.org/1999/xlink" width="32" height="32"><defs><style type="text/css"></style></defs><path d="M730.0608 909.6192H311.3472c-87.5008 0-158.72-71.2192-158.72-158.72V269.4144c0-87.5008 71.2192-158.72 158.72-158.72h265.1648c172.2368 0 312.32 140.0832 312.32 312.32v327.8848c-0.0512 87.5008-71.2192 158.72-158.7712 158.72zM311.3472 161.8944c-59.2896 0-107.52 48.2304-107.52 107.52v481.4848c0 59.2896 48.2304 107.52 107.52 107.52h418.7648c59.2896 0 107.52-48.2304 107.52-107.52V423.0144c0-143.9744-117.1456-261.12-261.12-261.12H311.3472z" fill="#dc5d48" p-id="2246"></path><path d="M660.992 729.344H434.7392c-14.1312 0-25.6-11.4688-25.6-25.6s11.4688-25.6 25.6-25.6h226.2528c27.4944 0 49.8176-25.4464 49.8176-56.7296s-22.3232-56.7296-49.8176-56.7296H366.1312c-59.5456 0-107.9296-48.4352-107.9296-107.9296 0-59.5456 48.4352-107.9808 107.9296-107.9808h144.128c14.1312 0 25.6 11.4688 25.6 25.6s-11.4688 25.6-25.6 25.6H366.1312c-31.2832 0-56.7296 25.4464-56.7296 56.7808 0 31.2832 25.4464 56.7296 56.7296 56.7296h294.8608c55.7056 0 101.0176 48.4352 101.0176 107.9296s-45.312 107.9296-101.0176 107.9296z" fill="#dc5d48" p-id="2247"></path></svg>